<svg width="128" height="32" viewBox="0 0 128 32" fill="none" xmlns="http://www.w3.org/2000/svg">
<rect width="128" height="32" fill="#F5F5F5"/>
<g clip-path="url(#clip0_0_1)">
<rect width="1920" height="27652" transform="translate(-668 -9037)" fill="white"/>
<path d="M-265 -82V42V42C-265 65.7482 -245.748 85 -222 85H-212.916H872" stroke="#129EE1" stroke-dasharray="15 15"/>
<path d="M128 1C128 0.447715 127.552 0 127 0H118C117.448 0 117 0.447715 117 1C117 1.55228 117.448 2 118 2H126V10C126 10.5523 126.448 11 127 11C127.552 11 128 10.5523 128 10V1ZM0.249509 1.66088C1.74319 3.3571 3.42265 5.10152 5.274 6.85487L6.64926 5.40274C4.83994 3.68921 3.20263 1.98816 1.75049 0.33912L0.249509 1.66088ZM16.5146 15.9426C20.3197 18.5688 24.4976 21.0498 28.9956 23.2296L29.8678 21.4298C25.4678 19.2974 21.3778 16.869 17.6507 14.2966L16.5146 15.9426ZM42.4866 28.4497C47.0147 29.7723 51.7613 30.7357 56.6874 31.2269L56.8859 29.2367C52.0906 28.7586 47.4653 27.8203 43.0473 26.5299L42.4866 28.4497ZM71.1657 31.2522C75.8005 30.8027 80.5442 29.8985 85.3693 28.4623L84.7987 26.5454C80.0979 27.9446 75.4807 28.8243 70.9726 29.2615L71.1657 31.2522ZM98.812 23.1181C102.909 21.0698 107.043 18.6101 111.198 15.6962L110.05 14.0587C105.972 16.9183 101.923 19.3268 97.9177 21.3291L98.812 23.1181ZM122.479 6.67452C124.221 5.10518 125.964 3.4504 127.707 1.70711L126.293 0.292893C124.573 2.01233 122.856 3.64319 121.14 5.1887L122.479 6.67452Z" fill="#129EE1"/>
</g>
<defs>
<clipPath id="clip0_0_1">
<rect width="1920" height="27652" fill="white" transform="translate(-668 -9037)"/>
</clipPath>
</defs>
</svg>
