<svg width="128" height="32" viewBox="0 0 128 32" fill="none" xmlns="http://www.w3.org/2000/svg">
<path d="M128 30.5957C128 31.148 127.552 31.5957 127 31.5957H118C117.448 31.5957 117 31.148 117 30.5957C117 30.0434 117.448 29.5957 118 29.5957H126V21.5957C126 21.0434 126.448 20.5957 127 20.5957C127.552 20.5957 128 21.0434 128 21.5957V30.5957ZM0.249509 29.9348C1.74319 28.2386 3.42265 26.4942 5.274 24.7408L6.64926 26.193C4.83994 27.9065 3.20263 29.6075 1.75049 31.2566L0.249509 29.9348ZM16.5146 15.6531C20.3197 13.0269 24.4976 10.5459 28.9956 8.36613L29.8678 10.1659C25.4678 12.2983 21.3778 14.7267 17.6507 17.2991L16.5146 15.6531ZM42.4866 3.14598C47.0147 1.82341 51.7613 0.859983 56.6874 0.368841L56.8859 2.35897C52.0906 2.83707 47.4653 3.77537 43.0473 5.06577L42.4866 3.14598ZM71.1657 0.343534C75.8005 0.793013 80.5442 1.69724 85.3693 3.13337L84.7987 5.05026C80.0979 3.65112 75.4807 2.77138 70.9726 2.33419L71.1657 0.343534ZM98.812 8.47765C102.909 10.5259 107.043 12.9856 111.198 15.8995L110.05 17.537C105.972 14.6774 101.923 12.2689 97.9177 10.2666L98.812 8.47765ZM122.479 24.9212C124.221 26.4905 125.964 28.1453 127.707 29.8886L126.293 31.3028C124.573 29.5834 122.856 27.9525 121.14 26.407L122.479 24.9212Z" fill="#129EE1"/>
</svg>
