<svg width="32" height="128" viewBox="0 0 32 128" fill="none" xmlns="http://www.w3.org/2000/svg">
<path d="M0.999994 128C0.44771 128 -5.53178e-06 127.552 -5.50763e-06 127L-5.11423e-06 118C-5.09009e-06 117.448 0.44771 117 0.999995 117C1.55228 117 1.99999 117.448 1.99999 118L1.99999 126L9.99999 126C10.5523 126 11 126.448 11 127C11 127.552 10.5523 128 9.99999 128L0.999994 128ZM1.66088 0.249509C3.3571 1.74319 5.10152 3.42265 6.85487 5.274L5.40274 6.64926C3.68921 4.83994 1.98816 3.20263 0.33912 1.75049L1.66088 0.249509ZM15.9426 16.5146C18.5688 20.3197 21.0498 24.4976 23.2296 28.9956L21.4298 29.8678C19.2974 25.4678 16.869 21.3778 14.2966 17.6507L15.9426 16.5146ZM28.4497 42.4866C29.7723 47.0147 30.7357 51.7613 31.2269 56.6874L29.2367 56.8859C28.7586 52.0906 27.8203 47.4653 26.5299 43.0473L28.4497 42.4866ZM31.2522 71.1657C30.8027 75.8005 29.8985 80.5442 28.4623 85.3693L26.5454 84.7987C27.9446 80.0979 28.8243 75.4807 29.2615 70.9726L31.2522 71.1657ZM23.1181 98.812C21.0698 102.909 18.6101 107.043 15.6962 111.198L14.0587 110.05C16.9183 105.972 19.3268 101.923 21.3291 97.9177L23.1181 98.812ZM6.67451 122.479C5.10517 124.221 3.4504 125.964 1.7071 127.707L0.292888 126.293C2.01232 124.573 3.64318 122.856 5.1887 121.14L6.67451 122.479Z" fill="#129EE1"/>
</svg>
