<svg width="128" height="32" viewBox="0 0 128 32" fill="none" xmlns="http://www.w3.org/2000/svg">
<path d="M0 1C0 0.447715 0.447716 0 1 0H10C10.5523 0 11 0.447715 11 1C11 1.55228 10.5523 2 10 2H2V10C2 10.5523 1.55228 11 1 11C0.447716 11 0 10.5523 0 10V1ZM127.75 1.66088C126.257 3.3571 124.577 5.10152 122.726 6.85487L121.351 5.40274C123.16 3.68921 124.797 1.98816 126.25 0.33912L127.75 1.66088ZM111.485 15.9426C107.68 18.5688 103.502 21.0498 99.0044 23.2296L98.1322 21.4298C102.532 19.2974 106.622 16.869 110.349 14.2966L111.485 15.9426ZM85.5134 28.4497C80.9853 29.7723 76.2387 30.7357 71.3126 31.2269L71.1141 29.2367C75.9094 28.7586 80.5347 27.8203 84.9527 26.5299L85.5134 28.4497ZM56.8343 31.2522C52.1995 30.8027 47.4558 29.8985 42.6307 28.4623L43.2013 26.5454C47.9021 27.9446 52.5193 28.8243 57.0274 29.2615L56.8343 31.2522ZM29.188 23.1181C25.0908 21.0698 20.9571 18.6101 16.8021 15.6962L17.9504 14.0587C22.028 16.9183 26.0769 19.3268 30.0823 21.3291L29.188 23.1181ZM5.5209 6.67452C3.77921 5.10518 2.03619 3.4504 0.292892 1.70711L1.70711 0.292893C3.42654 2.01233 5.14444 3.64319 6.8597 5.1887L5.5209 6.67452Z" fill="#129EE1"/>
</svg>
