<svg width="128" height="32" viewBox="0 0 128 32" fill="none" xmlns="http://www.w3.org/2000/svg">
<path d="M0 30.5957C0 31.148 0.447716 31.5957 1 31.5957H10C10.5523 31.5957 11 31.148 11 30.5957C11 30.0434 10.5523 29.5957 10 29.5957H2V21.5957C2 21.0434 1.55228 20.5957 1 20.5957C0.447716 20.5957 0 21.0434 0 21.5957V30.5957ZM127.75 29.9348C126.257 28.2386 124.577 26.4942 122.726 24.7408L121.351 26.193C123.16 27.9065 124.797 29.6075 126.25 31.2566L127.75 29.9348ZM111.485 15.6531C107.68 13.0269 103.502 10.5459 99.0044 8.36613L98.1322 10.1659C102.532 12.2983 106.622 14.7267 110.349 17.2991L111.485 15.6531ZM85.5134 3.14598C80.9853 1.82341 76.2387 0.859983 71.3126 0.368841L71.1141 2.35897C75.9094 2.83707 80.5347 3.77537 84.9527 5.06577L85.5134 3.14598ZM56.8343 0.343534C52.1995 0.793013 47.4558 1.69724 42.6307 3.13337L43.2013 5.05026C47.9021 3.65112 52.5193 2.77138 57.0274 2.33419L56.8343 0.343534ZM29.188 8.47765C25.0908 10.5259 20.9571 12.9856 16.8021 15.8995L17.9504 17.537C22.028 14.6774 26.0769 12.2689 30.0823 10.2666L29.188 8.47765ZM5.5209 24.9212C3.77921 26.4905 2.03619 28.1453 0.292892 29.8886L1.70711 31.3028C3.42654 29.5834 5.14444 27.9525 6.8597 26.407L5.5209 24.9212Z" fill="#129EE1"/>
</svg>
