<svg width="58" height="67" viewBox="0 0 58 67" fill="none" xmlns="http://www.w3.org/2000/svg">
<path d="M3.10329 2.71538V5.43076H1.55165H0V35.8172V66.2036H28.5762H57.1523V64.1994V62.1952H53.9197H50.6871V60.2168V58.2514L51.1397 58.0057C51.3983 57.8635 51.825 57.5015 52.1095 57.2041C54.243 54.8766 53.5448 51.2173 50.6871 49.8079C50.0665 49.4975 49.8208 49.4588 48.7476 49.4588C47.6873 49.4588 47.4158 49.5105 46.7951 49.7949C45.7995 50.2604 45.1141 50.9199 44.6099 51.8767C43.5366 53.868 44.1573 56.5058 45.9805 57.773L46.6658 58.2514L46.6787 60.2168V62.1823L45.9029 61.9107C44.1314 61.3159 42.2307 59.6608 41.3255 57.9282C38.9334 53.3767 41.0669 47.933 45.9417 46.1356C47.1313 45.696 49.1355 45.515 50.1441 45.7477L50.6871 45.877V29.533V13.189H43.7047H36.7223V37.6921V62.1952H34.8474H32.9725V33.813V5.43076H31.3562H29.7399V2.71538V0H16.4216H3.10329V2.71538ZM13.4476 16.0337V18.7491H11.5727H9.69779V16.0337V13.3183H11.5727H13.4476V16.0337ZM23.1454 16.0337V18.7491H21.2705H19.3956V16.0337V13.3183H21.2705H23.1454V16.0337ZM13.4476 27.0245V29.7399H11.5727H9.69779V27.0245V24.3091H11.5727H13.4476V27.0245ZM23.1454 27.0245V29.7399H21.2705H19.3956V27.0245V24.3091H21.2705H23.1454V27.0245ZM45.6443 27.0245V29.7399H43.7047H41.7652V27.0245V24.3091H43.7047H45.6443V27.0245ZM13.4476 38.08V40.7307H11.5727H9.69779V38.08V35.4293H11.5727H13.4476V38.08ZM23.1454 38.08V40.7307H21.2705H19.3956V38.08V35.4293H21.2705H23.1454V38.08ZM45.6443 38.08V40.7307H43.7047H41.7652V38.08V35.4293H43.7047H45.6443V38.08ZM13.4476 49.1355V51.8509H11.5727H9.69779V49.1355V46.4201H11.5727H13.4476V49.1355ZM23.1454 49.1355V51.8509H21.2705H19.3956V49.1355V46.4201H21.2705H23.1454V49.1355Z" fill="#129EE1"/>
</svg>
