<svg width="115" height="130" viewBox="0 0 115 130" fill="none" xmlns="http://www.w3.org/2000/svg">
<path d="M55.1072 0.685547C54.5994 1.16797 53.6091 3.02148 52.1619 6.2207C50.9685 8.86133 49.8767 11.1465 49.7752 11.2734C49.572 11.4766 40.4568 12.6445 38.908 12.6953C38.6033 12.6953 37.9431 13.0762 37.4607 13.5078C36.4197 14.4727 36.0642 15.8184 36.572 17.0117C36.7498 17.4434 38.7302 19.4746 41.0408 21.6074C43.3259 23.7148 45.2049 25.4668 45.2049 25.4922C45.2049 25.5176 44.7478 27.8281 44.1892 30.5957C42.9197 36.9688 42.8943 37.6035 44.0369 38.7461C44.7732 39.4824 45.0779 39.6094 46.1189 39.6094C47.2107 39.6094 47.8963 39.3047 52.0603 36.9434C54.6756 35.4707 56.9607 34.2773 57.1384 34.2773C57.3162 34.2773 59.6013 35.4707 62.2166 36.9434C66.406 39.3047 67.0916 39.6094 68.158 39.6094C69.199 39.6094 69.5037 39.4824 70.24 38.7461C71.3826 37.6035 71.3572 36.9688 70.0877 30.5957C69.5291 27.8281 69.072 25.5176 69.072 25.4922C69.072 25.4668 70.9509 23.7148 73.2361 21.6074C75.5466 19.4746 77.5271 17.4434 77.7048 17.0117C78.365 15.4375 77.324 13.2285 75.7498 12.8477C75.4197 12.7461 72.8045 12.416 69.9353 12.0859C67.0408 11.7559 64.6033 11.375 64.5017 11.248C64.4002 11.1465 63.3084 8.83594 62.0896 6.14453C59.5252 0.533203 59.0935 0 57.1131 0C56.1228 0 55.742 0.126953 55.1072 0.685547Z" fill="#129EE1"/>
<path d="M16.082 14.0666C15.0664 14.5236 14.8633 14.8283 12.832 19.3478C11.3594 22.5978 11.0293 23.1056 10.4453 23.2072C10.0898 23.2834 8.13476 23.5373 6.1289 23.7404C1.96483 24.2228 1.55858 24.3244 0.796865 25.2892C-0.675791 27.1681 -0.21876 28.4377 3.10741 31.5353C4.55468 32.8556 6.05272 34.2267 6.45897 34.5568L7.16991 35.1916L6.3828 39.1017C5.34179 44.2306 5.34179 44.9416 6.45897 46.1349C7.22069 46.9728 7.44921 47.0744 8.54101 47.0744C9.60741 47.049 10.2422 46.7951 12.832 45.3478C14.5078 44.383 16.2344 43.3927 16.6406 43.1388L17.4277 42.6818L21.2109 44.84C23.293 46.008 25.375 47.049 25.832 47.1252C27.0508 47.3537 28.4726 46.5666 29.0566 45.3224L29.5644 44.3068L28.6504 39.8634L27.7363 35.4201L31.2656 31.9923C34.7949 28.59 34.7949 28.5646 34.7949 27.422C34.7949 26.0255 34.1094 24.8322 33.1191 24.4259C32.7129 24.2482 30.4531 23.9181 28.1172 23.6388C25.7812 23.3849 23.8262 23.131 23.7754 23.0802C23.75 23.0295 22.9375 21.2521 21.998 19.1701C21.0586 17.0627 19.9668 15.0314 19.5859 14.6505C18.7226 13.7873 17.2754 13.5334 16.082 14.0666Z" fill="#129EE1"/>
<path d="M95.6055 13.9396C94.6406 14.3713 94.0059 15.3615 92.2793 19.1701C91.3398 21.2521 90.5273 23.0295 90.502 23.0802C90.4512 23.1056 88.5215 23.3849 86.1602 23.6388C83.8242 23.9181 81.5645 24.2736 81.1582 24.4259C80.168 24.8322 79.4824 26.0255 79.4824 27.422C79.4824 28.5646 79.4824 28.59 83.0117 31.9923L86.5664 35.4201L85.627 39.8634L84.7129 44.3068L85.1953 45.3224C85.8047 46.5666 87.2266 47.3537 88.4453 47.1252C88.9023 47.049 90.9844 46.008 93.0664 44.84L96.8496 42.6818L97.6367 43.1388C101.928 45.7287 104.568 47.049 105.533 47.0744C107.438 47.1252 108.682 45.9064 108.682 44.0021C108.682 43.4435 108.326 41.2345 107.895 39.1017L107.107 35.1916L107.818 34.5568C114.293 29.0216 115.258 27.3966 113.379 25.1877C112.617 24.2736 112.516 24.2482 107.336 23.6388C105.127 23.3595 103.273 23.1056 103.223 23.0548C103.172 23.0041 102.283 21.1505 101.268 18.9416C100.074 16.3517 99.1602 14.7267 98.7539 14.422C98.0176 13.8634 96.3672 13.6095 95.6055 13.9396Z" fill="#129EE1"/>
<path d="M55.9961 40.7266C54.8027 41.1836 53.7363 42.3516 53.2285 43.7988C53.0254 44.3574 52.5684 46.4141 52.2129 48.3691C50.6895 56.3418 47.1094 64.0606 41.9551 70.332L40.3809 72.2363V100.75V129.238L41.0918 129.568C41.9805 129.975 90.9336 130.152 92.3809 129.746C94.9707 129.061 97.5859 126.598 98.4238 124.084C98.9824 122.383 98.9316 119.514 98.3223 117.889L97.8145 116.568L98.5254 115.908C98.9316 115.527 99.6172 114.512 100.074 113.648C100.785 112.328 100.938 111.77 101.014 109.916C101.115 108.063 101.039 107.529 100.506 106.234L99.8965 104.711L100.861 103.441C102.969 100.725 103.375 96.916 101.877 93.8692C101.166 92.4473 101.166 92.3711 101.572 91.8379C102.41 90.7715 103.121 89.0703 103.375 87.6484C103.959 84.0684 102.207 80.3613 99.084 78.5332C96.9004 77.2383 96.2148 77.1875 80.6504 77.1875C67.0156 77.1875 66.2285 77.1621 66.4062 76.7305C66.9141 75.4102 68.4121 69.8242 68.9453 67.1582C70.6465 58.7539 70.2402 52.4824 67.7266 47.6074C65.1367 42.6563 59.627 39.4063 55.9961 40.7266Z" fill="#129EE1"/>
<path d="M5.69727 75.6387C4.45312 76.2227 2.98047 77.873 2.59961 79.1934C2.16797 80.5898 2.16797 124.566 2.59961 125.963C2.98047 127.283 4.45312 128.934 5.69727 129.518C6.66211 129.949 7.62695 130 18.875 130C30.6816 130 31.0117 129.975 32.1289 129.467C32.7637 129.162 33.5508 128.578 33.9062 128.172L34.541 127.41V102.578V77.7461L33.9062 76.9844C33.5508 76.5781 32.7637 75.9941 32.1289 75.6895C31.0117 75.1816 30.6816 75.1562 18.875 75.1562C7.62695 75.1562 6.66211 75.207 5.69727 75.6387ZM17.2754 84.2715C19.1543 86.125 18.1387 88.8418 15.4219 89.248C12.7812 89.6543 10.9277 88.8672 10.3945 87.1152C10.166 86.3027 10.1914 85.998 10.5469 85.2109C11.1816 83.8906 11.9434 83.5605 14.4316 83.5352C16.4375 83.5352 16.5898 83.5859 17.2754 84.2715Z" fill="#129EE1"/>
</svg>
