<svg width="80" height="56" viewBox="0 0 80 56" fill="none" xmlns="http://www.w3.org/2000/svg">
<path d="M2.91111 0.214703C1.82222 0.481369 1.06667 1.10359 0.488889 2.23692L0 3.2147L0.0444444 28.1258L0.111111 53.0369L0.733333 53.8369C1.06667 54.2814 1.66667 54.8369 2.06667 55.0591C2.73333 55.4147 5 55.4369 39 55.5036C58.9333 55.548 75.7333 55.5036 76.3778 55.4369C77.8667 55.2591 78.8667 54.5703 79.5111 53.3258L80 52.3258L79.9556 27.4147L79.8889 2.50359L79.2667 1.70359C78.9333 1.25915 78.3333 0.70359 77.9333 0.481369C77.2667 0.125813 75 0.103592 40.4444 0.0591469C20.2222 0.0591469 3.33333 0.125813 2.91111 0.214703ZM73.8667 5.85915C74.3333 6.2147 74.9111 6.90359 75.1333 7.4147C75.5333 8.28137 75.5556 9.25915 75.5556 27.7703C75.5556 46.2147 75.5333 47.2591 75.1333 48.1258C74.6444 49.1703 73.8222 49.9036 72.6889 50.2147C72.1556 50.3925 61.5556 50.4369 39.4222 50.3925L6.95556 50.3258L6.13333 49.6814C5.66667 49.3258 5.08889 48.6369 4.86667 48.1258C4.46667 47.2591 4.44444 46.2814 4.44444 27.7703C4.44444 9.25915 4.46667 8.28137 4.86667 7.4147C5.28889 6.48137 6.4 5.45914 7.22222 5.25915C7.46667 5.19248 22.3778 5.17026 40.3556 5.19248L73.0444 5.2147L73.8667 5.85915Z" fill="#129EE1"/>
<path d="M7.55577 8.21446C7.15577 8.61446 7.11133 8.9478 7.11133 11.77V14.8811L7.73355 14.9922C11.378 15.7478 13.5113 16.8367 15.578 19.0367C20.4891 24.2589 20.2447 32.17 15.0002 37.0589C12.978 38.97 11.0891 39.8589 7.73355 40.5478L7.11133 40.6589V43.7256C7.11133 46.1256 7.17799 46.8811 7.46688 47.2811L7.80022 47.77H23.2447H38.6669L38.6224 44.1922L38.5558 40.6145L36.9336 40.1922C34.4447 39.57 32.4669 38.4145 30.7336 36.57C28.9558 34.7034 28.2002 33.3922 27.578 31.1034C27.0002 29.0145 26.978 26.7922 27.5558 24.57C28.1558 22.17 28.9558 20.8145 30.8891 18.8589C32.7558 16.9478 34.4669 15.97 36.978 15.3256L38.5558 14.9256L38.6224 11.3478L38.6669 7.77002H23.3336C8.28911 7.77002 8.00022 7.77002 7.55577 8.21446Z" fill="#129EE1"/>
<path d="M41.3779 11.3478L41.4446 14.9256L43.0668 15.3478C45.5557 15.97 47.5335 17.1256 49.2668 18.97C51.0446 20.8367 51.8002 22.1478 52.4224 24.4367C53.0002 26.5256 53.0224 28.7478 52.4446 30.97C51.8446 33.37 51.0446 34.7256 49.1113 36.6811C47.2446 38.5922 45.5335 39.57 43.0224 40.2145L41.4446 40.6145L41.3779 44.1922L41.3335 47.77H56.6668C71.7113 47.77 72.0002 47.77 72.4446 47.3256C72.8446 46.9256 72.8891 46.5922 72.8891 43.77V40.6589L72.2891 40.5478C68.6224 39.7922 66.4891 38.7034 64.4224 36.5034C59.5113 31.2811 59.7557 23.37 65.0002 18.4811C67.0224 16.57 68.9113 15.6811 72.2891 14.9922L72.8891 14.8811V11.8145C72.8891 9.41446 72.8224 8.65891 72.5335 8.25891L72.2002 7.77002H56.7557H41.3335L41.3779 11.3478Z" fill="#129EE1"/>
<path d="M7.24466 17.7263C7.17799 17.7929 7.11133 22.3707 7.11133 27.904V37.9707L7.84466 37.8374C10.1336 37.4151 12.1336 36.2818 13.8224 34.504C18.2447 29.7707 16.8669 21.9707 11.0447 18.8596C9.68911 18.1485 7.48911 17.4818 7.24466 17.7263Z" fill="#129EE1"/>
<path d="M37.3554 17.8818C32.5998 19.2151 29.4665 23.6818 29.8443 28.5484C30.1554 32.5929 32.8665 36.1262 36.7109 37.4818C38.4665 38.0818 41.9109 38.0151 43.5998 37.3484C46.222 36.3262 48.5554 33.9929 49.5776 31.3929C50.2443 29.6818 50.3109 26.2373 49.7109 24.4818C48.7332 21.704 46.3554 19.2373 43.5998 18.2151C41.9332 17.5707 38.9998 17.4151 37.3554 17.8818Z" fill="#129EE1"/>
<path d="M71.4 17.8814C69.5111 18.3925 68.2222 19.1036 66.7777 20.4591C64 23.0591 62.9555 26.6814 63.9111 30.3258C64.5777 32.9036 66.5555 35.3925 68.9555 36.6814C70.3111 37.3925 72.5111 38.0591 72.7555 37.8147C72.9555 37.6369 72.9111 17.548 72.7333 17.5703C72.6222 17.5703 72.0444 17.7258 71.4 17.8814Z" fill="#129EE1"/>
</svg>
