<svg width="70" height="66" viewBox="0 0 70 66" fill="none" xmlns="http://www.w3.org/2000/svg">
<path d="M45.1035 0.313965C44.2422 0.901855 44.1602 1.32568 44.1602 4.9624V8.14795L41.4805 13.1519L38.8008 18.1558L39.1289 19.0854C39.4023 19.8784 39.4434 20.2749 39.4434 21.8882V23.7749H46.4297H53.416L53.7031 23.105C53.8535 22.7358 54.1953 22.0933 54.4688 21.6694C54.7422 21.2456 54.9609 20.8218 54.9609 20.7397C54.9609 20.644 53.498 17.8003 51.7207 14.4097L48.4668 8.25732L48.3984 4.67529L48.3301 1.07959L47.8242 0.57373C47.3594 0.108887 47.2363 0.0678711 46.457 0.0131836C45.7188 -0.027832 45.5273 0.0131836 45.1035 0.313965ZM47.168 14.7241C48.5625 15.4214 48.6172 17.3491 47.2773 18.1694C46.334 18.7437 45.0762 18.3198 44.5566 17.2534C44.0918 16.2964 44.4199 15.353 45.4453 14.7378C45.9785 14.4097 46.5527 14.4097 47.168 14.7241Z" fill="#129EE1"/>
<path d="M24.7871 5.31787C23.7891 5.82373 23.6523 6.20654 23.6523 8.47607V10.4448L23.0645 10.855C21.4238 12.0171 18.6074 14.6558 17.3359 16.2417L16.5156 17.2534L18.1016 18.8394L19.6875 20.4253L24.2676 15.8452L28.8613 11.2651L28.3828 10.855L27.918 10.4312L27.8633 8.43506C27.8223 6.67139 27.7949 6.38428 27.5352 6.05615C26.8242 5.09912 25.7715 4.82568 24.7871 5.31787Z" fill="#129EE1"/>
<path d="M26.2637 17.9507L21.4512 22.7768L21.998 23.8569C22.2988 24.4448 22.6816 25.4292 22.832 26.0171C22.9824 26.6186 23.1328 27.1382 23.1738 27.1792C23.2148 27.2202 25.7168 24.7866 28.7383 21.7651L34.2344 16.269L33.168 15.1069C32.5938 14.4643 31.8828 13.7534 31.5957 13.5346L31.0898 13.1245L26.2637 17.9507Z" fill="#129EE1"/>
<path d="M9.73433 13.3842C9.48824 13.4389 9.1191 13.6303 8.92769 13.808C8.31245 14.3823 8.20308 14.7787 8.20308 16.2826V17.6908L7.08199 18.5795C5.49605 19.8373 3.33589 22.0112 2.35152 23.3373C0.861284 25.3608 0.287065 26.9467 0.478471 28.6147C0.874956 31.978 2.89839 34.1791 6.50777 35.1362C8.18941 35.5873 11.5117 35.6557 13.3984 35.2729C17.7734 34.3979 20.2617 31.5678 20.0703 27.685C20.0019 26.3588 19.6464 25.3881 18.6484 23.9115C17.8144 22.6537 15.5312 20.2612 13.8085 18.8256L12.5097 17.7455L12.4414 16.2143C12.3867 14.8881 12.332 14.6147 12.0585 14.2319C11.539 13.5209 10.6367 13.1791 9.73433 13.3842Z" fill="#129EE1"/>
<path d="M61.9336 15.5309C61.6191 15.6539 61.1133 16.1461 60.8945 16.5562C60.7852 16.775 60.7031 17.3355 60.7031 17.9098V18.8941L59.3633 20.275C57.8047 21.8746 56.7246 23.3512 56.3145 24.4449C55.7676 25.9078 56.1914 28.0406 57.2852 29.2848C58.502 30.6519 60.0059 31.2809 62.3437 31.3902C66.2812 31.568 68.8789 29.859 69.4668 26.7144C69.6582 25.6617 69.5352 24.9371 68.9746 23.8023C68.4414 22.7496 66.6367 20.5074 65.6113 19.6598L64.9414 19.0855V18.0465C64.9414 16.3101 64.2168 15.4215 62.8359 15.4488C62.4531 15.4488 62.043 15.4898 61.9336 15.5309Z" fill="#129EE1"/>
<path d="M30.0234 24.5813L24.2949 30.3098L24.8965 30.4055C25.7441 30.5285 28.5879 30.2551 29.8457 29.927C32.6895 29.175 34.7676 27.5891 35.8066 25.3742C36.4902 23.884 36.7773 22.0246 36.5176 20.7531C36.3398 19.9055 35.957 18.8527 35.834 18.8527C35.793 18.8527 33.168 21.4367 30.0234 24.5813Z" fill="#129EE1"/>
<path d="M38.3633 26.8784C38.3086 27.0015 37.9941 27.521 37.666 28.0269L37.0508 28.9429L37.0781 33.769L37.1191 38.5952L40.1953 35.7925C41.8906 34.2612 43.4902 32.8667 43.75 32.7026C44.543 32.2104 45.7461 31.937 46.7031 32.019C48.207 32.1284 48.9727 32.6206 51.8574 35.2456C53.2656 36.5308 54.4824 37.5835 54.5508 37.5835C54.6328 37.5835 54.6875 36.2847 54.6875 34.1655V30.7612L54.2773 30.105C53.8398 29.4077 53.1836 27.5483 53.1836 26.9741V26.646H45.8145C39.0742 26.646 38.4453 26.6597 38.3633 26.8784Z" fill="#129EE1"/>
<path d="M33.1541 31.8003C32.2654 32.2651 31.2263 32.6206 29.8045 32.9487C28.2185 33.3179 24.5818 33.4409 22.9549 33.1812C21.9021 33.0034 21.7517 33.0034 21.656 33.1948C21.5877 33.3179 21.5467 35.396 21.574 37.8159L21.615 42.2319H27.3845H33.1677L33.6052 41.7808L34.0427 41.3296V36.3804C34.0427 33.6597 34.0017 31.4312 33.947 31.4312C33.8787 31.4448 33.5369 31.6089 33.1541 31.8003Z" fill="#129EE1"/>
<path d="M57.5586 36.8179V40.4272L58.5566 41.3296L59.541 42.2319H63.752H67.9492V37.7339V33.2222L67.334 33.4956C64.5996 34.7124 60.9492 34.6851 58.0781 33.4272L57.5586 33.2085V36.8179Z" fill="#129EE1"/>
<path d="M45.0352 35.3823C44.748 35.6011 42.1641 37.9116 39.3066 40.5093L34.125 45.2397H17.7734C1.70898 45.2397 1.42188 45.2397 0.984375 45.5132C0.738281 45.6636 0.423828 45.978 0.273438 46.2241C0.0136719 46.6616 0 46.9351 0 55.6851V64.6948L0.601562 65.2827L1.18945 65.8843H20.2207H39.2383V61.2632C39.2383 57.5581 39.2793 56.4917 39.4434 55.8354C40.0586 53.4702 42 51.5015 44.4199 50.7905C45.4863 50.4761 47.332 50.5034 48.4258 50.8452C50.1621 51.3784 51.8301 52.8003 52.6504 54.4272C53.375 55.8765 53.457 56.4917 53.457 61.3999V65.8843H61.127H68.8105L69.3984 65.2827L70 64.6948V55.6851C70 46.9351 69.9863 46.6616 69.7266 46.2241C69.5762 45.978 69.2617 45.6636 69.0156 45.5132C68.5918 45.2534 68.3184 45.2397 63.5469 45.2397H58.5156L53.0195 40.2358C49.998 37.4878 47.3867 35.1772 47.209 35.1089C47.0176 35.0405 46.5801 34.9858 46.2246 34.9858C45.7188 34.9858 45.4453 35.0679 45.0352 35.3823ZM47.2773 43.5991C48.4805 44.3374 48.5898 46.0054 47.4961 46.8667C46.7031 47.4956 45.5684 47.3452 44.8574 46.5386C44.2695 45.855 44.1875 45.2397 44.584 44.4604C45.1309 43.4077 46.3203 43.0249 47.2773 43.5991ZM11.2109 54.8784C11.6895 55.1245 12.1406 55.7397 12.25 56.2866C12.4414 57.2163 11.5938 58.3921 10.6094 58.5835C9.9668 58.6929 8.99609 58.228 8.61328 57.6265C7.61523 56.0132 9.51562 54.0034 11.2109 54.8784ZM20.5488 54.9194C21.0547 55.2612 21.3008 55.603 21.4648 56.2183C21.5879 56.6421 21.5742 56.8335 21.3555 57.3257C20.8633 58.4194 19.8516 58.8433 18.8125 58.3784C16.8711 57.5308 17.4453 54.6733 19.5508 54.6733C19.9199 54.6733 20.3164 54.7827 20.5488 54.9194ZM30.1738 55.2612C30.5977 55.6714 30.6797 55.8628 30.7207 56.478C30.7891 57.4214 30.4473 58.0093 29.5996 58.3784C28.7656 58.7476 28.123 58.6245 27.4668 57.9683C26.8105 57.312 26.6875 56.6694 27.0566 55.8354C27.4258 54.9878 28.0137 54.646 28.957 54.7144C29.5723 54.7554 29.7637 54.8374 30.1738 55.2612Z" fill="#129EE1"/>
<path d="M17.8418 36.7769C17.1582 37.2144 15.3125 37.8706 14.0137 38.144C10.7461 38.8276 6.5625 38.4995 3.97852 37.3647C3.58203 37.187 3.19922 37.0366 3.13086 37.0366C3.0625 37.0366 3.00781 38.1987 3.00781 39.6343V42.2319H10.8008H18.5938V39.3608C18.5938 36.2437 18.6074 36.2847 17.8418 36.7769Z" fill="#129EE1"/>
<path d="M44.8711 54.8237C44.1738 55.1792 43.5723 55.8628 43.3535 56.5737C43.2578 56.9155 43.2031 58.5972 43.2031 61.4956V65.8843H46.3477H49.4922V61.5366C49.4922 58.9116 49.4375 56.9976 49.3418 56.6831C49.1641 56.0132 48.3438 55.1108 47.6465 54.7964C46.8809 54.4409 45.623 54.4546 44.8711 54.8237Z" fill="#129EE1"/>
</svg>
