<svg width="15" height="23" viewBox="0 0 15 23" fill="none" xmlns="http://www.w3.org/2000/svg">
<path d="M12.931 0.724609H1.72414C1.26687 0.724609 0.828327 0.906259 0.504988 1.2296C0.18165 1.55294 0 1.99148 0 2.44875V20.5522C0 21.0095 0.18165 21.448 0.504988 21.7713C0.828327 22.0947 1.26687 22.2763 1.72414 22.2763H12.931C13.3883 22.2763 13.8268 22.0947 14.1502 21.7713C14.4735 21.448 14.6552 21.0095 14.6552 20.5522V2.44875C14.6552 1.99148 14.4735 1.55294 14.1502 1.2296C13.8268 0.906259 13.3883 0.724609 12.931 0.724609ZM3.01724 13.6556C3.18711 13.6557 3.35531 13.6892 3.51222 13.7543C3.66914 13.8193 3.81171 13.9147 3.93178 14.0348C4.05186 14.155 4.14709 14.2976 4.21205 14.4546C4.277 14.6115 4.3104 14.7797 4.31034 14.9496C4.31029 15.1195 4.27677 15.2877 4.21172 15.4446C4.14666 15.6015 4.05133 15.7441 3.93117 15.8641C3.81102 15.9842 3.66839 16.0795 3.51143 16.1444C3.35447 16.2094 3.18625 16.2428 3.01638 16.2427C2.67331 16.2426 2.34434 16.1062 2.10184 15.8635C1.85933 15.6209 1.72316 15.2918 1.72328 14.9487C1.72339 14.6057 1.85978 14.2767 2.10245 14.0342C2.34511 13.7917 2.67417 13.6555 3.01724 13.6556ZM1.72414 10.6384C1.72425 10.2953 1.86064 9.96637 2.10331 9.72386C2.34598 9.48136 2.67504 9.34518 3.0181 9.3453C3.36117 9.34541 3.69014 9.48181 3.93264 9.72447C4.17515 9.96714 4.31132 10.2962 4.31121 10.6393C4.31109 10.9823 4.1747 11.3113 3.93203 11.5538C3.68937 11.7963 3.36031 11.9325 3.01724 11.9324C2.67417 11.9323 2.3452 11.7959 2.1027 11.5532C1.8602 11.3105 1.72402 10.9815 1.72414 10.6384ZM7.32759 20.5522H3.01724C2.67429 20.5522 2.34538 20.416 2.10288 20.1735C1.86038 19.9309 1.72414 19.602 1.72414 19.2591C1.72414 18.9161 1.86038 18.5872 2.10288 18.3447C2.34538 18.1022 2.67429 17.966 3.01724 17.966H7.32759C7.67054 17.966 7.99944 18.1022 8.24195 18.3447C8.48445 18.5872 8.62069 18.9161 8.62069 19.2591C8.62069 19.602 8.48445 19.9309 8.24195 20.1735C7.99944 20.416 7.67054 20.5522 7.32759 20.5522ZM7.32759 16.2419C7.15772 16.2418 6.98952 16.2083 6.8326 16.1432C6.67569 16.0782 6.53312 15.9828 6.41305 15.8627C6.29297 15.7425 6.19774 15.5999 6.13278 15.4429C6.06783 15.286 6.03443 15.1178 6.03448 14.9479C6.03454 14.778 6.06805 14.6098 6.13311 14.4529C6.19817 14.296 6.2935 14.1534 6.41365 14.0333C6.53381 13.9133 6.67644 13.818 6.8334 13.7531C6.99036 13.6881 7.15858 13.6547 7.32845 13.6548C7.67152 13.6549 8.00049 13.7913 8.24299 14.034C8.48549 14.2766 8.62167 14.6057 8.62155 14.9487C8.62144 15.2918 8.48504 15.6208 8.24238 15.8633C7.99971 16.1058 7.67065 16.242 7.32759 16.2419ZM7.32759 11.9315C6.98452 11.9314 6.65555 11.795 6.41305 11.5523C6.17054 11.3097 6.03437 10.9806 6.03448 10.6375C6.0346 10.2945 6.17099 9.9655 6.41365 9.723C6.65632 9.4805 6.98538 9.34432 7.32845 9.34444C7.67152 9.34455 8.00049 9.48094 8.24299 9.72361C8.48549 9.96627 8.62167 10.2953 8.62155 10.6384C8.62144 10.9815 8.48504 11.3104 8.24238 11.5529C7.99971 11.7954 7.67065 11.9316 7.32759 11.9315ZM11.6379 20.5522C11.2949 20.5521 10.9659 20.4157 10.7234 20.173C10.4809 19.9304 10.3447 19.6013 10.3448 19.2582C10.3449 18.9152 10.4813 18.5862 10.724 18.3437C10.9667 18.1012 11.2957 17.965 11.6388 17.9651C11.8087 17.9652 11.9769 17.9987 12.1338 18.0638C12.2907 18.1288 12.4333 18.2241 12.5533 18.3443C12.6734 18.4645 12.7686 18.6071 12.8336 18.764C12.8986 18.921 12.932 19.0892 12.9319 19.2591C12.9318 19.429 12.8983 19.5972 12.8333 19.7541C12.7682 19.911 12.6729 20.0536 12.5527 20.1736C12.4326 20.2937 12.2899 20.3889 12.133 20.4539C11.976 20.5188 11.8078 20.5523 11.6379 20.5522ZM11.6379 16.2419C11.4681 16.2418 11.2999 16.2083 11.1429 16.1432C10.986 16.0782 10.8435 15.9828 10.7234 15.8627C10.6033 15.7425 10.5081 15.5999 10.4431 15.4429C10.3782 15.286 10.3448 15.1178 10.3448 14.9479C10.3449 14.778 10.3784 14.6098 10.4435 14.4529C10.5085 14.296 10.6038 14.1534 10.724 14.0333C10.8442 13.9133 10.9868 13.818 11.1437 13.7531C11.3007 13.6881 11.4689 13.6547 11.6388 13.6548C11.9819 13.6549 12.3108 13.7913 12.5533 14.034C12.7958 14.2766 12.932 14.6057 12.9319 14.9487C12.9318 15.2918 12.7954 15.6208 12.5527 15.8633C12.3101 16.1058 11.981 16.242 11.6379 16.2419ZM11.6379 11.9315C11.2949 11.9314 10.9659 11.795 10.7234 11.5523C10.4809 11.3097 10.3447 10.9806 10.3448 10.6375C10.3449 10.2945 10.4813 9.9655 10.724 9.723C10.9667 9.4805 11.2957 9.34432 11.6388 9.34444C11.9819 9.34455 12.3108 9.48094 12.5533 9.72361C12.7958 9.96627 12.932 10.2953 12.9319 10.6384C12.9318 10.9815 12.7954 11.3104 12.5527 11.5529C12.3101 11.7954 11.981 11.9316 11.6379 11.9315ZM12.931 5.89702C12.931 6.35429 12.7494 6.79283 12.426 7.11617C12.1027 7.43951 11.6642 7.62116 11.2069 7.62116H3.44828C2.99101 7.62116 2.55247 7.43951 2.22913 7.11617C1.90579 6.79283 1.72414 6.35429 1.72414 5.89702V4.17289C1.72414 3.71562 1.90579 3.27707 2.22913 2.95374C2.55247 2.6304 2.99101 2.44875 3.44828 2.44875H11.2069C11.6642 2.44875 12.1027 2.6304 12.426 2.95374C12.7494 3.27707 12.931 3.71562 12.931 4.17289V5.89702Z" fill="#129EE1"/>
</svg>
