<svg width="50" height="50" viewBox="0 0 50 50" fill="none" xmlns="http://www.w3.org/2000/svg">
<circle cx="25" cy="25" r="25" fill="#0AA4D5"/>
<path d="M18.0431 13.6496C14.1661 15.0993 11 16.3102 11 16.3268C11 16.3713 25.1029 21.6592 25.2196 21.6592C25.3306 21.6592 30.5519 19.704 30.5519 19.6651C30.5519 19.6429 29.3688 19.143 27.9246 18.5487L25.2973 17.4655L27.0414 16.7268L28.7855 15.988L31.4017 17.1656C32.8459 17.8099 34.0512 18.3431 34.0846 18.3431C34.1845 18.3487 39.4391 16.3657 39.4391 16.3268C39.4391 16.2713 25.3195 10.9945 25.1918 11.0001C25.1307 11.0001 21.9146 12.1943 18.0431 13.6496Z" fill="white"/>
<path d="M11 26.1192V34.1344L17.6265 36.6172C21.2647 37.9836 24.2642 39.1001 24.2919 39.1001C24.3142 39.1001 24.3308 35.4952 24.3308 31.0849V23.0698L17.7099 20.5869C14.0661 19.2205 11.0667 18.104 11.0444 18.104C11.0167 18.104 11 21.7089 11 26.1192ZM16.3712 31.6404L18.1098 32.2958V33.2068C18.1098 33.9066 18.0931 34.1066 18.0431 34.0899C18.0042 34.0733 17.2044 33.7789 16.2657 33.4289L14.5549 32.7957V31.8903C14.5549 31.396 14.5716 30.9905 14.5938 30.9905C14.6104 30.9905 15.4103 31.2849 16.3712 31.6404Z" fill="white"/>
<path d="M36.7064 19.0927L34.1069 20.0703V22.2921V24.5195L32.3683 25.1749C31.4074 25.5304 30.6076 25.8248 30.5909 25.8248C30.5687 25.8248 30.552 24.8361 30.552 23.6308C30.552 22.4255 30.5353 21.4367 30.5131 21.4367C30.4854 21.4367 29.4855 21.8033 28.2913 22.2533L26.1084 23.0698V31.0849C26.1084 35.4952 26.1251 39.1001 26.1528 39.1001C26.1751 39.1001 29.1745 37.9836 32.8182 36.6172L39.4392 34.1344V26.1192C39.4392 19.7426 39.4226 18.104 39.3726 18.1096C39.3337 18.1096 38.1339 18.554 36.7064 19.0927Z" fill="white"/>
</svg>
