<svg width="50" height="50" viewBox="0 0 50 50" fill="none" xmlns="http://www.w3.org/2000/svg">
<circle cx="25" cy="25" r="25" fill="#0AA4D5"/>
<path d="M29.6279 9.03565C27.8868 9.23322 26.0531 9.91237 24.7504 10.8323C24.0898 11.3015 22.5031 12.8636 21.9289 13.6106C21.5152 14.1416 20.5212 15.6295 20.5212 15.7036C20.5212 15.7283 20.3545 15.7654 20.1507 15.7839C19.5333 15.8395 19.1505 16.1667 19.0456 16.7285C18.9838 17.0557 19.0703 17.4324 19.2678 17.7225L19.3913 17.8954L16.4772 24.2856C14.4089 28.8235 13.5383 30.6695 13.4766 30.6572C13.4272 30.6448 13.242 30.6325 13.0629 30.6387C11.9886 30.651 11.5009 31.9167 12.2788 32.6638L12.5505 32.9231L11.9269 34.2814L11.3033 35.6458H9.60545C7.99402 35.6458 7.88906 35.652 7.62975 35.7755C7.22844 35.9731 7 36.362 7 36.8436C7 37.3499 7.19757 37.6771 7.62975 37.8932L7.9508 38.0537H11.0378C12.9765 38.0537 14.2175 38.029 14.3595 37.992C15.1868 37.7574 15.477 36.6707 14.8843 36.0224C14.7237 35.8496 14.3101 35.652 14.1125 35.6458C14.0322 35.6458 13.9767 35.6211 13.989 35.5964C14.0014 35.5656 14.1743 35.1766 14.3718 34.7321C14.7361 33.9418 14.7423 33.9233 14.9151 33.9603C15.1991 34.0159 15.6437 33.8554 15.8906 33.6084C16.1438 33.3553 16.292 32.9107 16.224 32.5958C16.1685 32.3242 15.9771 31.9661 15.8351 31.8673C15.7239 31.787 15.8659 31.4598 18.6319 25.3846L21.5399 18.9821L21.8609 19.0191C22.9291 19.1364 23.6082 17.988 22.9846 17.1298C22.8858 16.9878 22.7747 16.8767 22.7438 16.8767C22.7068 16.8767 22.6821 16.852 22.6821 16.8211C22.6821 16.7409 23.3798 15.6975 23.812 15.1171C24.3059 14.4626 25.5654 13.2093 26.1087 12.8327C27.4732 11.8942 29.0229 11.4188 30.7392 11.4188C32.0234 11.425 32.7458 11.5917 33.7645 12.1165C34.5795 12.5363 35.2278 13.1908 35.6044 13.9749C35.9995 14.8146 36.1045 15.3147 36.2033 16.8829C36.3391 19.1302 36.0119 20.8096 35.2772 21.6492L35.0302 21.9271V23.2298C35.0302 24.3041 35.0426 24.5325 35.1166 24.5325C35.166 24.5325 35.4562 24.409 35.7587 24.2547C37.3331 23.4644 38.2778 21.8468 38.5556 19.4575C38.6482 18.5993 38.5988 16.0309 38.463 15.1788C38.1851 13.4501 37.5307 12.135 36.407 11.0731C35.3513 10.0729 34.1411 9.46784 32.5668 9.15296C31.8691 9.01713 30.3441 8.95539 29.6279 9.03565Z" fill="white"/>
<path d="M29.9675 20.575C28.2944 20.9331 26.72 21.7604 25.4975 22.9335C23.9417 24.4153 22.9353 26.2243 22.3117 28.6507C22.0586 29.6324 20.9966 36.3991 21.0399 36.7696C21.1078 37.3746 21.5832 37.9488 22.0771 38.0229C22.2253 38.0414 23.5712 38.0538 25.0777 38.0414L27.8128 38.0229L27.6461 37.8068C27.393 37.4672 26.9669 36.5288 26.8435 36.0163C26.6891 35.3742 26.7015 34.3617 26.8743 33.7011C27.6091 30.8795 30.5479 29.231 33.2583 30.1139C33.5053 30.1942 33.7522 30.2806 33.814 30.3053C33.9128 30.3485 33.9189 30.1016 33.9066 25.4216L33.8881 20.4886L32.1902 20.4762C30.7578 20.4701 30.4121 20.4824 29.9675 20.575Z" fill="white"/>
<path d="M31.1651 31.0154C29.7142 31.2253 28.4732 32.2811 28.0163 33.6888C27.8743 34.121 27.8496 34.3 27.8496 34.9051C27.8496 35.5348 27.8681 35.6768 28.0348 36.1461C28.4794 37.4241 29.424 38.3193 30.7452 38.7083C31.1959 38.8441 32.2023 38.8565 32.6839 38.7392C33.8261 38.449 34.8078 37.6587 35.3017 36.6153C35.5857 36.0102 35.6721 35.6027 35.6721 34.8742C35.6721 32.9047 34.2583 31.2932 32.2888 31.0216C31.764 30.9475 31.6343 30.9475 31.1651 31.0154ZM32.5913 33.1949C32.9617 33.3801 33.3013 33.7258 33.4989 34.1024C33.7088 34.5038 33.7026 35.3064 33.4927 35.72C33.3136 36.072 32.9309 36.4548 32.5604 36.6461C32.1591 36.8499 31.3565 36.8499 30.9552 36.6461C29.7574 36.0226 29.4857 34.5408 30.3933 33.59C30.9737 32.9911 31.8751 32.8244 32.5913 33.1949Z" fill="white"/>
</svg>
