<svg width="50" height="50" viewBox="0 0 50 50" fill="none" xmlns="http://www.w3.org/2000/svg">
<circle cx="25" cy="25" r="25" fill="#0AA4D5"/>
<path d="M23.3741 12.5051C21.2946 12.778 19.3204 13.5814 17.6411 14.8379C15.9618 16.0944 14.634 17.7617 13.7854 19.6796C12.9367 21.5975 12.5957 23.7015 12.7952 25.7893C12.9946 27.8771 13.7278 29.8785 14.9242 31.6011C15.2335 32.0695 15.3713 32.6305 15.3143 33.1889L14.9408 36.9362C14.9309 37.0357 14.9458 37.1361 14.9844 37.2284C15.0229 37.3207 15.0838 37.402 15.1616 37.4649C15.2394 37.5278 15.3316 37.5704 15.4299 37.5888C15.5282 37.6072 15.6295 37.6009 15.7248 37.5704L19.7097 36.2894C20.185 36.1357 20.6954 36.1278 21.1752 36.2667C22.8029 36.8236 24.5333 37.0148 26.2432 36.8267C27.8609 36.6637 29.4299 36.1803 30.8588 35.4046C32.2876 34.629 33.5478 33.5765 34.5656 32.3087C35.5835 31.0409 36.3387 29.5832 36.7873 28.0204C37.2359 26.4577 37.3688 24.8213 37.1783 23.2067C36.9879 21.592 36.4778 20.0315 35.6779 18.616C34.878 17.2006 33.8043 15.9586 32.5193 14.9624C31.2344 13.9663 29.764 13.236 28.1938 12.8141C26.6237 12.3922 24.9853 12.2871 23.3741 12.5051ZM18.9781 18.9017C19.5775 18.3368 20.3701 18.0222 21.1937 18.0222C22.0174 18.0222 22.8099 18.3368 23.4094 18.9017C23.9967 19.4925 24.3264 20.2917 24.3264 21.1249C24.3264 21.958 23.9967 22.7572 23.4094 23.3481C22.8185 23.9296 22.0215 24.2538 21.1925 24.2497C20.3634 24.2457 19.5696 23.9139 18.9844 23.3267C18.3992 22.7394 18.07 21.9445 18.0689 21.1155C18.0677 20.2864 18.3945 19.4906 18.9781 18.9017ZM20.0886 31.0282C19.9298 31.1866 19.7147 31.2755 19.4905 31.2755C19.2662 31.2755 19.0511 31.1866 18.8924 31.0282C18.8137 30.9496 18.7513 30.8563 18.7087 30.7536C18.6661 30.6509 18.6441 30.5407 18.6441 30.4295C18.6441 30.3183 18.6661 30.2082 18.7087 30.1055C18.7513 30.0028 18.8137 29.9095 18.8924 29.8309L29.909 18.8137C30.0671 18.6557 30.2813 18.5665 30.5048 18.5659C30.7283 18.5652 30.9431 18.653 31.1021 18.8101L31.108 18.8157C31.1874 18.8942 31.2505 18.9875 31.2936 19.0905C31.3368 19.1934 31.3592 19.3038 31.3595 19.4155C31.3598 19.5271 31.3381 19.6377 31.2955 19.7408C31.2529 19.844 31.1903 19.9377 31.1113 20.0166L20.0886 31.0282ZM31.029 30.9641C30.5898 31.402 30.0307 31.6999 29.4223 31.8203C28.8139 31.9406 28.1835 31.878 27.6107 31.6403C27.0379 31.4025 26.5483 31.0003 26.204 30.4845C25.8596 29.9687 25.6758 29.3625 25.6758 28.7423C25.6758 28.1221 25.8596 27.5158 26.204 27C26.5483 26.4842 27.0379 26.082 27.6107 25.8443C28.1835 25.6065 28.8139 25.5439 29.4223 25.6642C30.0307 25.7846 30.5898 26.0825 31.029 26.5205C31.3215 26.8118 31.5536 27.1581 31.712 27.5393C31.8703 27.9206 31.9518 28.3294 31.9518 28.7423C31.9518 29.1551 31.8703 29.5639 31.712 29.9452C31.5536 30.3265 31.3215 30.6727 31.029 30.9641Z" fill="white"/>
</svg>
