<svg width="50" height="50" viewBox="0 0 50 50" fill="none" xmlns="http://www.w3.org/2000/svg">
<circle cx="25" cy="25" r="25" fill="#0AA4D5"/>
<g clip-path="url(#clip0_173_37)">
<path d="M34.629 38H16.3717C13.9611 38 12 36.0385 12 33.6271V15.3729C12 12.9615 13.9611 11 16.3717 11H34.629C37.0389 11 39 12.9615 39 15.3729V33.6278C39 36.0392 37.0389 38 34.629 38ZM22.8983 15.1538C20.3205 15.1538 18.2308 17.2318 18.2308 19.7951C18.2308 22.3585 20.3205 24.4364 22.8983 24.4364H28.794C31.3718 24.4364 33.4615 22.3585 33.4615 19.7951C33.4615 17.2318 31.3718 15.1538 28.794 15.1538H22.8983ZM28.5949 22.9945C26.828 22.9945 25.3955 21.5721 25.3955 19.8176C25.3955 18.0631 26.828 16.6409 28.5949 16.6409C30.3619 16.6409 31.7943 18.0631 31.7943 19.8176C31.7943 21.5721 30.3619 22.9945 28.5949 22.9945ZM22.8983 26.5156H28.794C30.8291 26.5156 32.4789 28.1561 32.4789 30.1798C32.4789 32.2034 30.8291 33.844 28.794 33.844H22.8983C20.8632 33.844 19.2135 32.2034 19.2135 30.1798C19.2135 28.1561 20.8632 26.5156 22.8983 26.5156ZM22.8983 25.5385C20.3205 25.5385 18.2308 27.6164 18.2308 30.1798C18.2308 32.7431 20.3205 34.8211 22.8983 34.8211H28.794C31.3718 34.8211 33.4615 32.7431 33.4615 30.1798C33.4615 27.6164 31.3718 25.5385 28.794 25.5385H22.8983ZM23.0769 32.9071C24.6063 32.9071 25.8462 31.6761 25.8462 30.1575C25.8462 28.6388 24.6063 27.4077 23.0769 27.4077C21.5475 27.4077 20.3077 28.6388 20.3077 30.1575C20.3077 31.6761 21.5475 32.9071 23.0769 32.9071Z" fill="white"/>
</g>
<defs>
<clipPath id="clip0_173_37">
<rect width="27" height="27" fill="white" transform="translate(12 11)"/>
</clipPath>
</defs>
</svg>
