<svg width="49" height="51" viewBox="0 0 49 51" fill="none" xmlns="http://www.w3.org/2000/svg">
<path d="M9.80973 0.152272C7.38203 0.739298 5.83984 2.95806 5.83984 5.86334C5.83984 7.49507 6.30747 8.61937 7.42183 9.63423C8.12825 10.281 8.80482 10.659 9.90923 11.0272C11.3818 11.5247 12.6553 11.6639 15.0233 11.6042C17.8589 11.5346 19.8887 11.1366 21.5403 10.3407C24.1073 9.1069 24.4157 6.98764 22.3462 4.90818C20.2667 2.82871 16.466 0.769147 13.6503 0.19207C12.4762 -0.0467196 10.7052 -0.0666189 9.80973 0.152272ZM13.5806 4.22165C15.0233 4.63954 17.3615 5.88323 18.6947 6.94784L18.9435 7.13688L18.5455 7.24633C17.3316 7.58462 16.3168 7.69406 14.4263 7.69406C12.2872 7.68411 11.3718 7.52492 10.4764 7.00754C9.83958 6.62945 9.71023 6.38071 9.76993 5.62455C9.83958 4.79873 10.0983 4.2714 10.546 4.04256C11.0335 3.79382 12.3767 3.87342 13.5806 4.22165Z" fill="#129EE1"/>
<path d="M35.5199 0.14299C32.7937 0.64047 28.5353 2.95872 26.5852 5.00834C25.4111 6.24209 25.0529 7.25695 25.4111 8.3315C26.0777 10.3413 29.6795 11.6348 34.6045 11.6348C37.9775 11.6348 40.2758 10.9482 41.7185 9.50555C42.7334 8.4907 43.1811 7.37634 43.1811 5.864C43.1811 2.97862 41.5892 0.730016 39.1416 0.14299C38.3953 -0.0361023 36.5149 -0.0361023 35.5199 0.14299ZM38.7535 4.28202C39.1018 4.67005 39.3604 5.65506 39.251 6.16249C39.1117 6.80922 38.1168 7.33654 36.485 7.61513C34.9926 7.88377 32.1271 7.70468 30.4058 7.247L30.0277 7.1475L30.6347 6.69977C31.4804 6.08289 32.3858 5.54562 33.4106 5.03819C35.1319 4.18252 36.3159 3.86414 37.5994 3.91388C38.4053 3.93378 38.4451 3.95368 38.7535 4.28202Z" fill="#129EE1"/>
<path d="M1.84067 13.4151C1.11435 13.5942 0.48753 14.1017 0.189042 14.7683C0.0198992 15.1364 0 15.5046 0 19.4943C0 23.4742 0.0198992 23.8523 0.189042 24.2204C0.407933 24.7179 0.855665 25.1756 1.36309 25.4243C1.72128 25.6034 2.14911 25.6133 11.8798 25.6432L22.0184 25.6631L22.2572 25.4442L22.4861 25.2353V19.5341C22.4861 14.0818 22.4761 13.833 22.297 13.6141L22.108 13.3753L12.1186 13.3554C6.63638 13.3554 2.00982 13.3753 1.84067 13.4151Z" fill="#129EE1"/>
<path d="M26.7345 13.5245L26.4658 13.7335V19.4843C26.4658 25.2053 26.4658 25.2352 26.6748 25.4242C26.8738 25.6033 27.1921 25.6133 37.0522 25.6133C46.8227 25.6133 47.2207 25.6033 47.5888 25.4242C48.0962 25.1755 48.544 24.7178 48.7629 24.2203C48.932 23.8522 48.9519 23.4741 48.9519 19.4943C48.9519 15.5045 48.932 15.1364 48.7629 14.7682C48.544 14.2807 48.146 13.8728 47.6087 13.5842L47.2107 13.3753L37.1019 13.3454L26.9931 13.3255L26.7345 13.5245Z" fill="#129EE1"/>
<path d="M3.99937 28.5088C3.71083 28.6481 3.3626 28.9068 3.23325 29.0859C2.65618 29.8421 2.68602 29.3048 2.68602 39.6424C2.68602 50.0596 2.64623 49.4527 3.29295 50.189C3.98942 50.975 3.3228 50.9352 13.352 50.9352C22.0778 50.9352 22.2867 50.9352 22.3862 50.7462C22.4559 50.6168 22.4857 46.9753 22.4857 39.6424V28.7377L22.237 28.4989L21.9982 28.2501H13.2525H4.51675L3.99937 28.5088Z" fill="#129EE1"/>
<path d="M26.7146 28.4893L26.4658 28.738V39.7224C26.4658 48.1198 26.4957 50.7266 26.5852 50.8162C26.6748 50.9057 28.8139 50.9355 35.6194 50.9355C44.0567 50.9355 44.5442 50.9256 44.9323 50.7465C45.4297 50.5177 46.0367 49.8311 46.166 49.3337C46.2357 49.0949 46.2556 45.5528 46.2456 39.4239L46.2158 29.8723L45.9173 29.3847C45.7282 29.0862 45.4297 28.7878 45.1312 28.5987L44.6437 28.3002L35.7985 28.2704L26.9534 28.2505L26.7146 28.4893Z" fill="#129EE1"/>
</svg>
