<svg width="56" height="51" viewBox="0 0 56 51" fill="none" xmlns="http://www.w3.org/2000/svg">
<path d="M26.9939 0.0433159C24.7796 0.272385 22.6634 1.46135 21.3327 3.22844C20.6564 4.12289 1.02204 38.1121 0.607534 39.0829C-0.23238 41.1009 -0.199656 43.7406 0.694797 45.7695C1.60016 47.7984 3.35634 49.4346 5.48339 50.209C6.90143 50.7326 6.13787 50.7108 27.9865 50.7108H48.6026L49.5079 50.4708C52.0168 49.8054 54.0129 48.1365 55.0928 45.824C56.0963 43.697 56.1182 40.9045 55.1692 38.832C54.8856 38.2103 35.5785 4.73374 34.9131 3.69749C33.266 1.14502 30.1681 -0.273014 26.9939 0.0433159ZM28.9682 15.1727C29.71 15.4235 30.4517 16.1762 30.7681 17.0161L31.0189 17.6597L30.6153 24.6953C30.3972 28.5676 30.2117 31.9818 30.2227 32.2873C30.2227 33.4326 29.3391 34.5125 28.2265 34.6979C27.223 34.8615 26.034 34.0762 25.7722 33.0944C25.6958 32.8217 25.4886 29.9748 25.3141 26.7678C25.1286 23.5609 24.9323 20.2994 24.8668 19.5358C24.7796 18.3687 24.7905 18.0196 24.9214 17.4852C25.4231 15.5435 27.1575 14.5509 28.9682 15.1727ZM29.4264 37.414C30.059 37.8067 30.6153 38.5048 30.779 39.1266C30.9535 39.7592 30.8553 41.0354 30.6044 41.439C29.6336 43.0098 27.812 43.5225 26.4049 42.6389C24.6814 41.5481 24.3978 39.3774 25.7831 37.9158C26.4267 37.2395 27.0375 37.0104 28.1174 37.0649C28.7719 37.0868 29.001 37.1522 29.4264 37.414Z" fill="#129EE1"/>
</svg>
