<svg width="37" height="49" viewBox="0 0 37 49" fill="none" xmlns="http://www.w3.org/2000/svg">
<path d="M17.5997 0.220286C17.4562 0.335131 17.2935 0.555247 17.2361 0.698802C17.1787 0.880637 17.1404 3.76129 17.1404 9.13979V17.3224L16.7576 17.5138C16.1929 17.8009 15.6283 18.4038 15.3316 19.0355C15.0828 19.5618 15.0828 19.6001 15.0349 22.2415L14.9871 24.9212L14.2693 25.0743C12.1447 25.5528 10.3168 26.3184 8.38356 27.5434C6.42166 28.7971 4.42147 30.759 3.08163 32.7497C1.38769 35.2858 0.430663 37.9942 0.0574217 41.3725L0 41.918H18.2888H36.5776L36.5202 41.3725C36.2139 38.6545 35.6014 36.5395 34.5009 34.4532C31.9647 29.6585 27.5241 26.2419 22.3083 25.0743L21.5905 24.9212L21.5427 22.2415C21.4948 19.6001 21.4948 19.5618 21.246 19.0355C20.9493 18.4038 20.3847 17.8009 19.82 17.5138L19.4372 17.3224V9.13022C19.4372 0.28728 19.4468 0.507395 18.93 0.162867C18.5663 -0.0763907 17.9156 -0.0476813 17.5997 0.220286Z" fill="#129EE1"/>
<path d="M9.19727 44.0043C9.19727 44.2531 10.4988 45.7748 11.2836 46.4447C13.2838 48.1482 15.6285 49 18.289 49C20.9496 49 23.2943 48.1482 25.2945 46.4447C26.0792 45.7748 27.3808 44.2531 27.3808 44.0043C27.3808 43.966 23.2943 43.9278 18.289 43.9278C13.2933 43.9278 9.19727 43.966 9.19727 44.0043Z" fill="#129EE1"/>
</svg>
