<svg width="49" height="50" viewBox="0 0 49 50" fill="none" xmlns="http://www.w3.org/2000/svg">
<path d="M0.975586 0.452101C0.975586 0.484932 2.83598 4.2276 5.10128 8.76915L9.23791 17.0315H24.526H39.8249L43.9835 8.71443L48.142 0.397383H24.5588C11.5908 0.397383 0.975586 0.41927 0.975586 0.452101ZM43.8631 3.29741C43.9725 3.41778 44.1038 3.62571 44.1367 3.74609C44.1914 3.92118 43.491 5.42044 41.4883 9.44764C39.9781 12.4462 38.6649 14.9741 38.5664 15.0616C38.271 15.3133 10.7372 15.3133 10.4417 15.0616C10.3432 14.9741 9.02999 12.4462 7.51979 9.44764C5.50619 5.39855 4.81675 3.92118 4.87146 3.74609C4.96996 3.41778 5.2326 3.15514 5.50619 3.10042C5.62656 3.07854 14.2719 3.05665 24.6901 3.06759C43.5019 3.07854 43.6552 3.07854 43.8631 3.29741Z" fill="#129EE1"/>
<path d="M7.8706 6.52573L8.74607 8.27669H16.1876H23.6292V6.52573V4.77477H15.3122H6.99512L7.8706 6.52573Z" fill="#129EE1"/>
<path d="M25.3799 6.52573V8.27669H32.8214H40.263L41.1385 6.52573L42.014 4.77477H33.6969H25.3799V6.52573Z" fill="#129EE1"/>
<path d="M10.4966 11.7786L11.3721 13.5296H17.5004H23.6287V11.7786V10.0276H16.6249H9.62109L10.4966 11.7786Z" fill="#129EE1"/>
<path d="M25.3799 11.7786V13.5296H31.5082H37.6366L38.5121 11.7786L39.3875 10.0276H32.3837H25.3799V11.7786Z" fill="#129EE1"/>
<path d="M0.00170081 25.8191C-0.00924267 38.809 0.0345312 49.4242 0.0783052 49.4023C0.133023 49.3913 1.90587 47.9906 4.01796 46.3053L7.85912 43.2411V30.5467V17.8522L3.93041 10.0276L0.00170081 2.20306V25.8191Z" fill="#129EE1"/>
<path d="M45.0564 10.1371L41.1387 18.0383L41.1496 30.6452V43.2411L45.0346 46.3381C47.1795 48.0453 48.9523 49.4242 48.9742 49.3913C48.9961 49.3694 49.007 38.7433 48.9961 25.7863L48.9633 2.22494L45.0564 10.1371Z" fill="#129EE1"/>
<path d="M9.62109 30.6014V42.4203H24.5042H39.3874V30.6014V18.7824H24.5042H9.62109V30.6014Z" fill="#129EE1"/>
</svg>
