<svg width="39" height="34" viewBox="0 0 39 34" fill="none" xmlns="http://www.w3.org/2000/svg">
<path d="M34.125 12.1429H24.375V4.85714C24.375 2.17843 22.1886 0 19.5 0H15.8438C15.5205 0 15.2105 0.127933 14.982 0.355656C14.7534 0.583379 14.625 0.892237 14.625 1.21429V6.96271L9.91088 15.1834C9.80482 15.3665 9.74932 15.5743 9.75 15.7857V32.7857C9.75 33.1078 9.8784 33.4166 10.107 33.6443C10.3355 33.8721 10.6455 34 10.9688 34H30.5297C31.4725 33.9996 32.395 33.7269 33.1854 33.2148C33.9758 32.7028 34.6002 31.9733 34.983 31.1149L38.8927 22.3501C38.9634 22.1953 38.9999 22.0272 39 21.8571V17C39 14.3213 36.8136 12.1429 34.125 12.1429ZM0 15.7857V32.7857C0 33.1078 0.128404 33.4166 0.356964 33.6443C0.585524 33.8721 0.895517 34 1.21875 34H7.3125V14.5714H1.21875C0.895517 14.5714 0.585524 14.6994 0.356964 14.9271C0.128404 15.1548 0 15.4637 0 15.7857Z" fill="white"/>
</svg>
