<svg width="13" height="15" viewBox="0 0 13 15" fill="none" xmlns="http://www.w3.org/2000/svg">
<path d="M6.44727 0.964844C4.41182 0.964844 2.75586 2.62081 2.75586 4.65625C2.75586 6.69169 4.41182 8.34766 6.44727 8.34766C8.48271 8.34766 10.1387 6.69169 10.1387 4.65625C10.1387 2.62081 8.48271 0.964844 6.44727 0.964844Z" fill="#F3F3F3"/>
<path d="M11.0401 10.7592C10.0295 9.73308 8.6897 9.16797 7.26758 9.16797H5.62695C4.20486 9.16797 2.86507 9.73308 1.85445 10.7592C0.848769 11.7804 0.294922 13.1282 0.294922 14.5547C0.294922 14.7812 0.478562 14.9648 0.705078 14.9648H12.1895C12.416 14.9648 12.5996 14.7812 12.5996 14.5547C12.5996 13.1282 12.0458 11.7804 11.0401 10.7592Z" fill="#F3F3F3"/>
</svg>
