<svg width="41" height="40" viewBox="0 0 41 40" fill="none" xmlns="http://www.w3.org/2000/svg">
<path d="M5.65914 0.0768118C5.38565 0.186206 5.16686 0.490949 4.89337 1.14732C4.16668 2.86638 2.79143 4.23381 1.088 4.92143C0.259729 5.25743 0.0487538 5.48403 0.00968425 6.11696C-0.0371992 6.83584 0.142521 7.05463 1.10363 7.47658C2.13507 7.91416 2.65078 8.26578 3.43217 9.0628C4.14324 9.77387 4.53394 10.3755 4.94026 11.3601C5.11216 11.782 5.26844 12.0321 5.44035 12.1649C5.917 12.5322 6.64369 12.4775 7.0422 12.0477C7.15159 11.9305 7.35475 11.5633 7.4954 11.2273C8.19866 9.53164 9.52702 8.20327 11.2226 7.50002C11.9181 7.21091 12.2228 6.96868 12.3478 6.57798C12.5666 5.9138 12.2306 5.27306 11.5196 5.00739C9.62079 4.29632 8.29242 3.01484 7.46415 1.10825C7.07345 0.201834 6.83904 -0.00132751 6.21392 0.00648689C5.99514 0.00648689 5.74509 0.0377417 5.65914 0.0768118Z" fill="#129EE1"/>
<path d="M29.4133 0.139324C29.0773 0.3503 29.0304 0.420624 28.71 1.2489C27.999 3.06172 27.1629 4.32758 25.7876 5.71064C24.4046 7.0937 23.1309 7.92197 21.3259 8.63304C20.2945 9.03155 20.0757 9.26596 20.0757 9.9614C20.0757 10.649 20.3023 10.8913 21.2868 11.2741C24.7328 12.5947 27.4051 15.267 28.7257 18.713C29.1086 19.6975 29.3508 19.9241 30.0384 19.9241C30.7338 19.9241 30.9683 19.7053 31.3668 18.6739C32.0778 16.8689 32.9061 15.5952 34.2892 14.2122C35.6722 12.8291 36.9459 12.0008 38.7509 11.2898C39.7823 10.8913 40.0011 10.6568 40.0011 9.9614C40.0011 9.2894 39.6964 8.94559 38.8603 8.67211C38.579 8.57834 37.9852 8.31267 37.5398 8.08606C34.758 6.67175 32.5545 4.24162 31.4058 1.32704C31.062 0.459694 30.9448 0.279974 30.6088 0.108068C30.3119 -0.0482101 29.6946 -0.0325813 29.4133 0.139324Z" fill="#129EE1"/>
<path d="M12.0666 15.0873C11.6134 15.2123 11.4337 15.5093 10.9336 16.9939C10.0194 19.6506 9.20673 21.0337 7.6127 22.6199C5.97959 24.253 4.47932 25.1516 1.97106 25.9799C0.580182 26.4331 0.306696 26.5816 0.111348 26.9566C-0.037116 27.2458 -0.037116 27.8396 0.111348 28.1287C0.291068 28.4804 0.564555 28.621 2.02575 29.1055C4.40118 29.9025 5.86238 30.7542 7.40172 32.231C9.03483 33.7938 10.0663 35.4972 10.9023 38.0133C11.379 39.4354 11.5196 39.7089 11.8713 39.8887C12.1604 40.0371 12.7542 40.0371 13.0434 39.8887C13.4184 39.6933 13.5669 39.4198 14.0201 38.0289C14.8484 35.5207 15.747 34.0204 17.3801 32.3873C18.9663 30.7855 20.3494 29.9728 23.0295 29.0664C24.2329 28.6523 24.4907 28.5351 24.6783 28.3241C24.9439 28.0193 25.0377 27.613 24.9205 27.1989C24.7798 26.6753 24.4673 26.4878 22.8889 25.9486C20.4744 25.136 19.0366 24.3077 17.5129 22.8543C15.9267 21.3541 14.9109 19.6741 14.0514 17.1111C13.52 15.5483 13.3247 15.2202 12.8246 15.0795C12.4886 14.9936 12.387 14.9936 12.0666 15.0873Z" fill="#129EE1"/>
<path d="M33.3206 27.6911C32.969 27.8474 32.7736 28.1053 32.5001 28.7773C31.7969 30.4729 30.4685 31.8091 28.7729 32.5045C28.0775 32.7936 27.7727 33.0359 27.6477 33.4266C27.4289 34.0907 27.7649 34.7315 28.476 34.9971C30.3748 35.7082 31.7031 36.9897 32.5314 38.8963C32.9455 39.8574 33.1643 40.0371 33.8832 39.9902C34.5083 39.9512 34.7427 39.7402 35.0787 38.9197C35.7742 37.185 37.1807 35.7785 38.9154 35.0831C39.7358 34.7471 39.9468 34.5127 39.9859 33.8876C40.0327 33.1687 39.853 32.9499 38.8919 32.5358C36.9853 31.7075 35.7038 30.3791 34.9928 28.4804C34.7896 27.9334 34.438 27.6443 33.9223 27.6052C33.7113 27.5896 33.4534 27.6286 33.3206 27.6911Z" fill="#129EE1"/>
</svg>
