<svg width="31" height="40" viewBox="0 0 31 40" fill="none" xmlns="http://www.w3.org/2000/svg">
<path d="M2.31302 0.156284C1.39094 0.492298 0.695469 1.11744 0.250056 2.02389L0 2.53963V20.0045V37.4694L0.250056 37.9851C0.703283 38.915 1.40657 39.5324 2.35209 39.8527C2.80532 40.009 3.0163 40.009 15.355 39.9934L27.8969 39.9699L28.4439 39.7043C29.1628 39.3526 29.7801 38.7353 30.1318 38.0164L30.3975 37.4694L30.4209 24.5915L30.4365 11.7214H26.4356C24.232 11.7214 22.1612 11.6823 21.8487 11.6433C20.2389 11.4323 19.0043 10.1976 18.7933 8.58787C18.7542 8.2753 18.7152 6.20452 18.7152 4.0009V0H10.729C3.03975 0.0078125 2.71936 0.0078125 2.31302 0.156284ZM22.7551 16.66C23.0911 16.8475 23.3256 17.2539 23.3256 17.6602C23.3256 18.0666 23.138 18.4026 22.7786 18.6214L22.5051 18.7933H15.1987C8.03306 18.7933 7.88459 18.7933 7.63453 18.637C7.28289 18.426 7.07191 18.0666 7.07191 17.668C7.07191 17.0976 7.40011 16.6991 7.97055 16.5584C8.09557 16.5272 11.4244 16.5115 15.355 16.5115C21.9659 16.5272 22.5207 16.535 22.7551 16.66ZM22.7551 21.3486C23.0911 21.5361 23.3256 21.9424 23.3256 22.3488C23.3256 22.7551 23.138 23.0911 22.7786 23.3099L22.5051 23.4819H15.1987C8.03306 23.4819 7.88459 23.4819 7.63453 23.3256C7.28289 23.1146 7.07191 22.7551 7.07191 22.3566C7.07191 21.7862 7.40011 21.3876 7.97055 21.247C8.09557 21.2157 11.4244 21.2001 15.355 21.2001C21.9659 21.2157 22.5207 21.2235 22.7551 21.3486ZM22.7551 26.0371C23.0911 26.2247 23.3256 26.631 23.3256 27.0373C23.3256 27.4437 23.138 27.7797 22.7786 27.9985L22.5051 28.1704H15.1987C8.03306 28.1704 7.88459 28.1704 7.63453 28.0141C7.28289 27.8031 7.07191 27.4437 7.07191 27.0452C7.07191 26.4747 7.40011 26.0762 7.97055 25.9355C8.09557 25.9043 11.4244 25.8886 15.355 25.8886C21.9659 25.9043 22.5207 25.9121 22.7551 26.0371ZM18.0666 30.7257C18.8167 31.1398 18.8246 32.2495 18.0744 32.7027C17.8243 32.8512 17.6759 32.859 12.8545 32.859C8.03306 32.859 7.88459 32.8512 7.63453 32.7027C7.28289 32.4917 7.07191 32.1322 7.07191 31.7337C7.07191 31.1633 7.39229 30.7647 7.97055 30.6241C8.09557 30.5928 10.3695 30.5694 13.0107 30.5772C17.4024 30.5928 17.84 30.6006 18.0666 30.7257Z" fill="#129EE1"/>
</svg>
