<svg width="41" height="40" viewBox="0 0 41 40" fill="none" xmlns="http://www.w3.org/2000/svg">
<path d="M6.99332 0.140915C5.38364 0.609753 4.1334 1.89124 3.71926 3.4853C3.55517 4.09479 3.55517 5.26688 3.71926 5.87637C4.14122 7.50168 5.46178 8.82224 7.08708 9.2442C7.69657 9.40829 8.86867 9.40829 9.47816 9.2442C11.1035 8.82224 12.424 7.50168 12.846 5.87637C13.0101 5.26688 13.0101 4.09479 12.846 3.4853C12.424 1.85999 11.1035 0.539427 9.47816 0.117473C8.83741 -0.0466213 7.60281 -0.0388069 6.99332 0.140915Z" fill="#129EE1"/>
<path d="M18.714 0.133102C17.0887 0.625382 15.8541 1.89125 15.44 3.4853C15.3696 3.75097 15.3149 4.28232 15.3149 4.68084C15.3149 5.07935 15.3696 5.6107 15.44 5.87637C15.8619 7.50949 17.1825 8.82224 18.839 9.25201C19.5892 9.45517 20.9566 9.38485 21.6599 9.11136C23.0351 8.58001 24.0432 7.57201 24.5589 6.19675C24.7073 5.80605 24.7308 5.57944 24.7308 4.68084C24.7308 3.78223 24.7073 3.55562 24.5589 3.16492C24.0432 1.78967 23.0351 0.781662 21.6599 0.250312C20.9566 -0.0231771 19.4407 -0.0856895 18.714 0.133102Z" fill="#129EE1"/>
<path d="M30.5138 0.140915C28.9041 0.609753 27.6539 1.89124 27.2398 3.4853C27.1694 3.75097 27.1147 4.28232 27.1147 4.68083C27.1147 5.07935 27.1694 5.6107 27.2398 5.87637C27.6617 7.50168 28.9823 8.82224 30.6076 9.2442C31.2171 9.40829 32.3892 9.40829 32.9987 9.2442C34.624 8.82224 35.9445 7.50168 36.3665 5.87637C36.5306 5.26688 36.5306 4.09479 36.3665 3.4853C35.9445 1.85999 34.624 0.539427 32.9987 0.117473C32.3579 -0.0466213 31.1233 -0.0388069 30.5138 0.140915Z" fill="#129EE1"/>
<path d="M3.75071 10.7445C1.85973 12.0182 0.523536 14.0107 0.109396 16.1517C0.0468838 16.4721 0 17.191 0 17.7771V18.8241H4.79778H9.58775L9.64244 18.41C9.94719 16.0736 11.424 13.4559 13.3228 11.8931C13.5572 11.6978 13.7526 11.5102 13.7526 11.479C13.7526 11.393 12.4164 10.4632 12.2914 10.4632C12.2289 10.4632 11.9788 10.5804 11.7366 10.721C10.627 11.3618 9.60337 11.6353 8.275 11.6353C6.91537 11.6353 5.90736 11.354 4.59462 10.596L4.25862 10.4007L3.75071 10.7445Z" fill="#129EE1"/>
<path d="M35.5462 10.5569C34.3272 11.2993 33.1707 11.6353 31.8111 11.6353C30.4827 11.6353 29.4591 11.3618 28.3495 10.721C28.1073 10.5804 27.8572 10.4632 27.7947 10.4632C27.6697 10.4632 26.3335 11.393 26.3335 11.479C26.3335 11.5102 26.5288 11.6978 26.7633 11.8931C27.2946 12.3307 28.1854 13.2996 28.6386 13.9404C29.5294 15.1906 30.2561 16.9878 30.4436 18.41L30.4983 18.8241H35.2492H40.008V17.7302C40.008 16.2611 39.7345 15.05 39.1328 13.8779C38.5702 12.7605 37.4528 11.5024 36.4057 10.7992L35.8118 10.3929L35.5462 10.5569Z" fill="#129EE1"/>
<path d="M18.4094 11.8384C16.034 12.3073 13.932 13.8857 12.7443 16.0892C12.4005 16.7378 11.9942 17.8786 11.916 18.4491L11.8613 18.8241H20.0426H28.2238L28.1691 18.4491C28.1457 18.2459 28.005 17.7458 27.8643 17.3238C26.9345 14.5811 24.52 12.4479 21.6913 11.8619C20.8396 11.69 19.2299 11.6743 18.4094 11.8384Z" fill="#129EE1"/>
<path d="M0 21.9888V22.8093L0.336001 23.1374C0.64856 23.45 0.781397 23.5047 3.12559 24.2627L5.57918 25.0597L5.86829 25.7786C6.02457 26.1693 6.17304 26.5053 6.19648 26.5287C6.21992 26.56 5.71983 27.6305 5.07127 28.9198C3.8601 31.3577 3.78978 31.5531 3.99294 32.0844C4.09452 32.3657 7.53267 35.8195 7.86086 35.9758C8.40002 36.2337 8.58756 36.1712 11.0802 34.9287C12.3695 34.2802 13.44 33.7801 13.4713 33.8035C13.4947 33.827 13.8307 33.9754 14.2214 34.1317L14.9403 34.4208L15.7373 36.8744C16.4953 39.2186 16.55 39.3514 16.8626 39.664L17.1907 40H20.0428H22.8949L23.2231 39.6718C23.5357 39.3514 23.5904 39.2186 24.3483 36.8744L25.1454 34.4208L25.8643 34.1317C26.255 33.9754 26.591 33.827 26.6144 33.8035C26.6457 33.7801 27.7162 34.2802 29.0055 34.9287C31.4981 36.1712 31.6857 36.2337 32.2248 35.9758C32.553 35.8195 35.9912 32.3657 36.0927 32.0844C36.2959 31.5531 36.2256 31.3577 35.0144 28.9198C34.3659 27.6305 33.8658 26.56 33.8892 26.5287C33.9126 26.5053 34.0611 26.1693 34.2174 25.7786L34.5065 25.0675L36.921 24.2705C39.2262 23.5047 39.359 23.45 39.6794 23.1374L40.0075 22.8093V21.9888V21.1683H35.241H30.4823L30.4354 21.4574C30.0135 23.9423 28.9898 25.8801 27.2161 27.5758C25.2313 29.4746 22.7621 30.467 19.996 30.467C14.9638 30.467 10.6817 26.8882 9.73621 21.8794C9.66589 21.52 9.61119 21.2152 9.61119 21.1996C9.61119 21.184 7.44672 21.1683 4.80559 21.1683H0V21.9888Z" fill="#129EE1"/>
<path d="M11.877 21.2386C11.877 21.559 12.338 22.9968 12.6505 23.6297C13.682 25.7395 15.4636 27.2242 17.8156 27.9509C18.4329 28.1384 18.5813 28.154 20.0035 28.154C21.4491 28.154 21.5663 28.1384 22.2305 27.9352C23.6135 27.5133 24.6919 26.896 25.6999 25.9661C26.536 25.1925 27.3564 23.9892 27.7315 22.9655C27.88 22.5592 28.2082 21.3793 28.2082 21.2308C28.2082 21.1996 27.6612 21.1683 26.997 21.1683H25.7936L25.6999 21.4965C25.1842 23.4187 23.4338 25.1144 21.4413 25.6223C20.6989 25.8176 19.4096 25.8255 18.6829 25.6614C16.7372 25.2003 14.9713 23.5281 14.4165 21.6137L14.2915 21.1683H13.0803C12.4161 21.1683 11.877 21.1996 11.877 21.2386Z" fill="#129EE1"/>
<path d="M16.8076 21.4965C17.4562 22.8014 18.5892 23.5125 20.0036 23.5125C21.3945 23.5125 22.5744 22.8171 23.2073 21.6215L23.4495 21.1683H20.0426H16.6436L16.8076 21.4965Z" fill="#129EE1"/>
</svg>
