<svg width="48" height="48" viewBox="0 0 48 48" fill="none" xmlns="http://www.w3.org/2000/svg">
<g filter="url(#filter0_b_0_718)">
<path d="M20.9679 0.176891C19.3497 0.837816 1.82385 8.66635 1.82385 8.72333C1.82385 8.76891 3.59012 9.58937 5.75521 10.5466L9.68657 12.29L19.7714 7.81171C25.3208 5.36173 29.822 3.31059 29.765 3.265C29.7194 3.21942 28.1013 2.47873 26.1755 1.62409C22.3011 -0.0851984 21.9023 -0.199151 20.9679 0.176891Z" fill="#129EE1"/>
<path d="M22.7112 9.02007C17.1731 11.47 12.6492 13.4984 12.6492 13.544C12.6492 13.6693 21.7882 17.6463 22.0047 17.6121C22.3009 17.5665 42.0489 8.82635 42.0489 8.73519C42.0489 8.68961 34.1976 5.15708 32.8188 4.58732C32.7846 4.56453 28.2379 6.57009 22.7112 9.02007Z" fill="#129EE1"/>
<path d="M0 22.7284C0 30.8304 0.045581 35.0467 0.125348 35.3316C0.398834 36.3343 0.296276 36.2774 10.5406 40.8241C15.7482 43.1259 20.1696 45.0859 20.3747 45.1657L20.7393 45.3252L20.7166 32.4941L20.6824 19.6631L10.5634 15.1848C5.00251 12.712 0.353253 10.6609 0.227905 10.6267C0 10.5583 0 10.6153 0 22.7284Z" fill="#129EE1"/>
<path d="M33.5017 15.0711C27.9522 17.5325 23.3485 19.5951 23.2687 19.652C23.1548 19.7204 23.132 22.2843 23.1548 32.5173L23.189 45.3027L24.4311 44.7444C25.1148 44.4367 25.6959 44.1632 25.7187 44.1404C25.7529 44.1176 25.4908 43.6276 25.1376 43.0465C24.4652 41.9183 23.9297 40.6649 23.565 39.286C23.2346 38.0554 23.1548 35.2635 23.4169 33.8733C24.2032 29.6457 26.8924 26.0903 30.6984 24.2443C32.8294 23.2074 34.7893 22.8085 37.1368 22.9111C39.2905 23.0136 41.2846 23.5834 43.0053 24.5862C43.4269 24.8369 43.803 25.042 43.8258 25.042C43.8486 25.042 43.8713 21.7829 43.8713 17.806C43.8713 12.0856 43.8372 10.57 43.7346 10.5814C43.6548 10.5814 39.0512 12.6098 33.5017 15.0711Z" fill="#129EE1"/>
<path d="M35.3253 25.224C33.6389 25.4861 32.5335 25.8279 31.2572 26.5231C28.3742 28.0728 26.4143 30.7393 25.7305 34.0439C25.4229 35.5253 25.4912 37.6334 25.9129 39.1148C26.9726 42.8752 29.9126 45.7696 33.73 46.818C34.5505 47.0459 34.9607 47.0801 36.4649 47.0801C38.3679 47.0801 39.1314 46.9547 40.5558 46.3964C45.1594 44.5731 48.0197 39.7757 47.4157 34.8644C46.8801 30.5228 43.9515 26.9903 39.8037 25.6912C38.4362 25.2582 36.4877 25.0531 35.3253 25.224ZM42.1169 32.95C42.4246 33.2576 42.5044 33.4286 42.5044 33.7704C42.5044 34.1921 42.3676 34.3402 39.2909 37.4397C37.5132 39.2174 35.9179 40.7443 35.747 40.8355C35.143 41.1546 34.824 40.9722 33.0691 39.2401C31.3826 37.5878 31.1091 37.2346 31.1091 36.7104C31.1091 36.3116 31.7814 35.6393 32.1917 35.6393C32.6703 35.6393 32.9096 35.8102 34.163 37.0409L35.3253 38.2032L38.0944 35.4455C39.61 33.9414 40.9318 32.6765 41.023 32.6423C41.4446 32.4942 41.7523 32.5853 42.1169 32.95Z" fill="#129EE1"/>
</g>
<defs>
<filter id="filter0_b_0_718" x="-4" y="-4" width="55.4958" height="55.0801" filterUnits="userSpaceOnUse" color-interpolation-filters="sRGB">
<feFlood flood-opacity="0" result="BackgroundImageFix"/>
<feGaussianBlur in="BackgroundImageFix" stdDeviation="2"/>
<feComposite in2="SourceAlpha" operator="in" result="effect1_backgroundBlur_0_718"/>
<feBlend mode="normal" in="SourceGraphic" in2="effect1_backgroundBlur_0_718" result="shape"/>
</filter>
</defs>
</svg>
