<svg width="56" height="56" viewBox="0 0 56 56" fill="none" xmlns="http://www.w3.org/2000/svg">
<g filter="url(#filter0_d_0_718)">
<path d="M24.9679 0.176891C23.3497 0.837816 5.82385 8.66635 5.82385 8.72333C5.82385 8.76891 7.59012 9.58937 9.75521 10.5466L13.6866 12.29L23.7714 7.81171C29.3208 5.36173 33.822 3.31059 33.765 3.265C33.7194 3.21942 32.1013 2.47873 30.1755 1.62409C26.3011 -0.0851984 25.9023 -0.199151 24.9679 0.176891Z" fill="#129EE1"/>
<path d="M26.7112 9.02007C21.1731 11.47 16.6492 13.4984 16.6492 13.544C16.6492 13.6693 25.7882 17.6463 26.0047 17.6121C26.3009 17.5665 46.0489 8.82635 46.0489 8.73519C46.0489 8.68961 38.1976 5.15708 36.8188 4.58732C36.7846 4.56453 32.2379 6.57009 26.7112 9.02007Z" fill="#129EE1"/>
<path d="M4 22.7284C4 30.8304 4.04558 35.0467 4.12535 35.3316C4.39883 36.3343 4.29628 36.2774 14.5406 40.8241C19.7482 43.1259 24.1696 45.0859 24.3747 45.1657L24.7393 45.3252L24.7166 32.4941L24.6824 19.6631L14.5634 15.1848C9.00251 12.712 4.35325 10.6609 4.2279 10.6267C4 10.5583 4 10.6153 4 22.7284Z" fill="#129EE1"/>
<path d="M37.5017 15.0711C31.9522 17.5325 27.3485 19.5951 27.2687 19.652C27.1548 19.7204 27.132 22.2843 27.1548 32.5173L27.189 45.3027L28.4311 44.7444C29.1148 44.4367 29.6959 44.1632 29.7187 44.1404C29.7529 44.1176 29.4908 43.6276 29.1376 43.0465C28.4652 41.9183 27.9297 40.6649 27.565 39.286C27.2346 38.0554 27.1548 35.2635 27.4169 33.8733C28.2032 29.6457 30.8924 26.0903 34.6984 24.2443C36.8294 23.2074 38.7893 22.8085 41.1368 22.9111C43.2905 23.0136 45.2846 23.5834 47.0053 24.5862C47.4269 24.8369 47.803 25.042 47.8258 25.042C47.8486 25.042 47.8713 21.7829 47.8713 17.806C47.8713 12.0856 47.8372 10.57 47.7346 10.5814C47.6548 10.5814 43.0512 12.6098 37.5017 15.0711Z" fill="#129EE1"/>
<path d="M39.3253 25.224C37.6389 25.4861 36.5335 25.8279 35.2572 26.5231C32.3742 28.0728 30.4143 30.7393 29.7305 34.0439C29.4229 35.5253 29.4912 37.6334 29.9129 39.1148C30.9726 42.8752 33.9126 45.7696 37.73 46.818C38.5505 47.0459 38.9607 47.0801 40.4649 47.0801C42.3679 47.0801 43.1314 46.9547 44.5558 46.3964C49.1594 44.5731 52.0197 39.7757 51.4157 34.8644C50.8801 30.5228 47.9515 26.9903 43.8037 25.6912C42.4362 25.2582 40.4877 25.0531 39.3253 25.224ZM46.1169 32.95C46.4246 33.2576 46.5044 33.4286 46.5044 33.7704C46.5044 34.1921 46.3676 34.3402 43.2909 37.4397C41.5132 39.2174 39.9179 40.7443 39.747 40.8355C39.143 41.1546 38.824 40.9722 37.0691 39.2401C35.3826 37.5878 35.1091 37.2346 35.1091 36.7104C35.1091 36.3116 35.7814 35.6393 36.1917 35.6393C36.6703 35.6393 36.9096 35.8102 38.163 37.0409L39.3253 38.2032L42.0944 35.4455C43.61 33.9414 44.9318 32.6765 45.023 32.6423C45.4446 32.4942 45.7523 32.5853 46.1169 32.95Z" fill="#129EE1"/>
</g>
<defs>
<filter id="filter0_d_0_718" x="0" y="0" width="55.4958" height="55.0801" filterUnits="userSpaceOnUse" color-interpolation-filters="sRGB">
<feFlood flood-opacity="0" result="BackgroundImageFix"/>
<feColorMatrix in="SourceAlpha" type="matrix" values="0 0 0 0 0 0 0 0 0 0 0 0 0 0 0 0 0 0 127 0" result="hardAlpha"/>
<feOffset dy="4"/>
<feGaussianBlur stdDeviation="2"/>
<feComposite in2="hardAlpha" operator="out"/>
<feColorMatrix type="matrix" values="0 0 0 0 0 0 0 0 0 0 0 0 0 0 0 0 0 0 0.25 0"/>
<feBlend mode="normal" in2="BackgroundImageFix" result="effect1_dropShadow_0_718"/>
<feBlend mode="normal" in="SourceGraphic" in2="effect1_dropShadow_0_718" result="shape"/>
</filter>
</defs>
</svg>
