<svg width="46" height="46" viewBox="0 0 46 46" fill="none" xmlns="http://www.w3.org/2000/svg">
<path d="M0 35.1392V23.0003H46V35.1392C46 36.0177 45.6872 36.7697 45.0616 37.3953C44.4361 38.0209 43.684 38.3336 42.8056 38.3336H3.19443C2.31597 38.3336 1.56395 38.0209 0.938379 37.3953C0.312793 36.7697 0 36.0177 0 35.1392V35.1392ZM12.7778 30.667V33.2225H20.4444V30.667H12.7778ZM5.11111 30.667V33.2225H10.2222V30.667H5.11113H5.11111ZM42.8056 7.66699C43.684 7.66699 44.4361 7.97978 45.0616 8.60535C45.6872 9.23093 46 9.98297 46 10.8615V15.3336H0V10.8614C0 9.98296 0.312793 9.23093 0.938379 8.60535C1.56395 7.97978 2.31597 7.66699 3.19443 7.66699H42.8056Z" fill="#129EE1"/>
</svg>
