<svg width="58" height="58" viewBox="0 0 58 58" fill="none" xmlns="http://www.w3.org/2000/svg">
<path d="M24.1667 10.8753H33.8334C35.2834 10.8753 36.25 9.90866 36.25 8.45866C36.25 7.00866 35.2834 6.04199 33.8334 6.04199H24.1667C22.7167 6.04199 21.75 7.00866 21.75 8.45866C21.75 9.90866 22.7167 10.8753 24.1667 10.8753ZM44.225 20.7837L46.4 18.6087C47.3667 17.642 47.3667 16.192 46.4 15.2253C45.4334 14.2587 43.9834 14.2587 43.0167 15.2253L40.8417 17.4003C33.8334 11.842 24.1667 11.842 17.1584 17.4003L14.9834 15.2253C14.0167 14.2587 12.5667 14.2587 11.6 15.2253C10.6334 16.192 10.6334 17.642 11.6 18.6087L13.775 20.7837C7.25002 29.242 8.70002 41.3253 17.1584 47.8503C25.6167 54.3753 37.7 52.9253 44.225 44.467C49.7834 37.4587 49.7834 27.792 44.225 20.7837ZM33.1084 35.042C32.1417 36.492 30.6917 37.4587 29 37.4587C26.3417 37.4587 24.1667 35.2837 24.1667 32.6253C24.1667 30.9337 25.1334 29.242 26.5834 28.517V22.9587C26.5834 21.5087 27.55 20.542 29 20.542C30.45 20.542 31.4167 21.5087 31.4167 22.9587V28.517C33.8334 29.7253 34.5584 32.6253 33.1084 35.042Z" fill="#129EE1"/>
</svg>
