<svg width="56" height="56" viewBox="0 0 56 56" fill="none" xmlns="http://www.w3.org/2000/svg">
<path d="M43.1485 12.2714C41.6974 12.2714 40.4688 13.4518 40.4688 14.9026V15.8214C40.4688 16.0244 40.3881 16.2192 40.2446 16.3628C40.101 16.5063 39.9062 16.587 39.7032 16.587C39.5001 16.587 39.3054 16.5063 39.1618 16.3628C39.0182 16.2192 38.9376 16.0244 38.9376 15.8214V11.4534C38.9376 10.7572 38.661 10.0895 38.1687 9.59722C37.6764 9.10494 37.0087 8.82837 36.3126 8.82837C35.6164 8.82837 34.9487 9.10494 34.4564 9.59722C33.9641 10.0895 33.6876 10.7572 33.6876 11.4534V14.8503C33.6876 15.0534 33.6069 15.2481 33.4633 15.3917C33.3197 15.5353 33.125 15.616 32.9219 15.616C32.7189 15.616 32.5241 15.5353 32.3806 15.3917C32.237 15.2481 32.1563 15.0534 32.1563 14.8503V8.39241C32.1563 7.69621 31.8797 7.02853 31.3875 6.53625C30.8952 6.04397 30.2275 5.76741 29.5313 5.76741C28.8351 5.76741 28.1674 6.04397 27.6751 6.53625C27.1829 7.02853 26.9063 7.69621 26.9063 8.39241V13.8801C26.9063 14.0831 26.8256 14.2779 26.6821 14.4215C26.5385 14.565 26.3437 14.6457 26.1407 14.6457C25.9376 14.6457 25.7429 14.565 25.5993 14.4215C25.4557 14.2779 25.3751 14.0831 25.3751 13.8801V7.0332C25.3751 6.33701 25.0985 5.66933 24.6062 5.17705C24.1139 4.68476 23.4462 4.4082 22.7501 4.4082C22.0539 4.4082 21.3862 4.68476 20.8939 5.17705C20.4016 5.66933 20.1251 6.33701 20.1251 7.0332V24.9209C20.1782 24.9894 20.2071 25.0737 20.2071 25.1604C20.2071 25.2471 20.1782 25.3314 20.1251 25.3999V41.7816H45.8282V14.9026C45.8282 13.4518 44.5995 12.2714 43.1485 12.2714ZM14.0497 22.472C13.2923 22.472 12.5518 22.6964 11.9219 23.117C11.292 23.5377 10.8009 24.1356 10.5106 24.8352C10.2204 25.5349 10.1441 26.3048 10.2913 27.0478C10.4386 27.7908 10.8028 28.4735 11.3379 29.0096L18.5938 36.2701V25.4385L16.7531 23.5937C16.3992 23.237 15.978 22.9542 15.5139 22.7617C15.0498 22.5691 14.5521 22.4707 14.0497 22.472Z" fill="#129EE1"/>
<path d="M45.8281 43.3125H20.125V51.625H45.8281V43.3125Z" fill="#129EE1"/>
</svg>
